<mxfile host="app.diagrams.net" modified="2023-05-01T13:40:00.635Z" agent="Mozilla/5.0 (Windows NT 10.0; Win64; x64) AppleWebKit/537.36 (KHTML, like Gecko) Chrome/112.0.0.0 Safari/537.36" etag="R2PQ7zhhVztCx8zqjRn_" version="21.1.4" type="device">
  <diagram name="Page-1" id="SFkjzM_trjfVvOytGeKx">
    <mxGraphModel dx="1956" dy="1098" grid="1" gridSize="10" guides="1" tooltips="1" connect="1" arrows="1" fold="1" page="1" pageScale="1" pageWidth="850" pageHeight="1100" math="0" shadow="0">
      <root>
        <mxCell id="0" />
        <mxCell id="1" parent="0" />
        <mxCell id="xo-ipE_-ma14xCwWNhMG-2" style="edgeStyle=orthogonalEdgeStyle;rounded=0;orthogonalLoop=1;jettySize=auto;html=1;entryX=0.011;entryY=0.594;entryDx=0;entryDy=0;strokeWidth=4;endArrow=block;endFill=1;fontFamily=Poppins;strokeColor=#000000;fontSource=https%3A%2F%2Ffonts.googleapis.com%2Fcss%3Ffamily%3DPoppins;entryPerimeter=0;" parent="1" target="xo-ipE_-ma14xCwWNhMG-5" edge="1">
          <mxGeometry relative="1" as="geometry">
            <mxPoint x="118" y="770" as="sourcePoint" />
            <mxPoint x="549.4324999999999" y="130.86199999999997" as="targetPoint" />
            <Array as="points">
              <mxPoint x="118" y="133" />
            </Array>
          </mxGeometry>
        </mxCell>
        <mxCell id="WaBpSPAJfXIjd7XNNRuX-11" style="edgeStyle=orthogonalEdgeStyle;rounded=0;orthogonalLoop=1;jettySize=auto;html=1;endArrow=block;endFill=1;strokeWidth=4;entryX=0;entryY=0.5;entryDx=0;entryDy=0;" parent="1" target="xo-ipE_-ma14xCwWNhMG-18" edge="1">
          <mxGeometry relative="1" as="geometry">
            <mxPoint x="135" y="829" as="sourcePoint" />
            <mxPoint x="521.2750000000001" y="1402.437" as="targetPoint" />
            <Array as="points">
              <mxPoint x="135" y="1310" />
              <mxPoint x="136" y="1405" />
            </Array>
          </mxGeometry>
        </mxCell>
        <mxCell id="WaBpSPAJfXIjd7XNNRuX-16" style="edgeStyle=orthogonalEdgeStyle;rounded=0;orthogonalLoop=1;jettySize=auto;html=1;endArrow=block;endFill=1;strokeWidth=4;" parent="1" edge="1">
          <mxGeometry relative="1" as="geometry">
            <mxPoint x="560" y="809" as="targetPoint" />
            <mxPoint x="235" y="809" as="sourcePoint" />
          </mxGeometry>
        </mxCell>
        <mxCell id="0rFcWoOh6gEUKjFKcU0K-2" style="edgeStyle=orthogonalEdgeStyle;rounded=0;orthogonalLoop=1;jettySize=auto;html=1;exitX=0.25;exitY=0;exitDx=0;exitDy=0;strokeWidth=4;sourcePerimeterSpacing=0;endArrow=block;endFill=1;entryX=0.05;entryY=0.2;entryDx=0;entryDy=0;entryPerimeter=0;" parent="1" edge="1">
          <mxGeometry relative="1" as="geometry">
            <mxPoint x="136.25" y="783" as="sourcePoint" />
            <mxPoint x="563.675" y="296.6" as="targetPoint" />
            <Array as="points">
              <mxPoint x="136" y="297" />
              <mxPoint x="155" y="297" />
            </Array>
          </mxGeometry>
        </mxCell>
        <mxCell id="xo-ipE_-ma14xCwWNhMG-3" value="User" style="html=1;overflow=block;blockSpacing=1;whiteSpace=wrap;fontSize=16.7;fontFamily=Poppins;fontColor=#3a414a;spacing=9;strokeColor=#000000;strokeOpacity=100;rounded=1;absoluteArcSize=1;arcSize=9;strokeWidth=3.8;lucidId=E4xzRdAca2AQ;fontSource=https%3A%2F%2Ffonts.googleapis.com%2Fcss%3Ffamily%3DPoppins;" parent="1" vertex="1">
          <mxGeometry x="110" y="769" width="125" height="60" as="geometry" />
        </mxCell>
        <mxCell id="xo-ipE_-ma14xCwWNhMG-4" style="edgeStyle=orthogonalEdgeStyle;rounded=0;orthogonalLoop=1;jettySize=auto;html=1;strokeWidth=4;endArrow=block;endFill=1;fontFamily=Poppins;strokeColor=#000000;fontSource=https%3A%2F%2Ffonts.googleapis.com%2Fcss%3Ffamily%3DPoppins;" parent="1" source="xo-ipE_-ma14xCwWNhMG-5" target="xo-ipE_-ma14xCwWNhMG-7" edge="1">
          <mxGeometry relative="1" as="geometry">
            <mxPoint x="750" y="140" as="targetPoint" />
            <Array as="points">
              <mxPoint x="680" y="130" />
              <mxPoint x="680" y="130" />
            </Array>
          </mxGeometry>
        </mxCell>
        <mxCell id="xo-ipE_-ma14xCwWNhMG-5" value="Login/ Register" style="html=1;overflow=block;blockSpacing=1;whiteSpace=wrap;ellipse;fontSize=16.7;fontFamily=Poppins;fontColor=#3a414a;spacing=3.8;strokeColor=#000000;strokeOpacity=100;rounded=1;absoluteArcSize=1;arcSize=9;strokeWidth=3.8;lucidId=E4xzczD-_cgz;fontSource=https%3A%2F%2Ffonts.googleapis.com%2Fcss%3Ffamily%3DPoppins;" parent="1" vertex="1">
          <mxGeometry x="562" y="66" width="113.5" height="113" as="geometry" />
        </mxCell>
        <mxCell id="xo-ipE_-ma14xCwWNhMG-6" style="edgeStyle=orthogonalEdgeStyle;rounded=0;orthogonalLoop=1;jettySize=auto;html=1;strokeWidth=4;fontFamily=Poppins;endArrow=block;endFill=1;strokeColor=#000000;fontSource=https%3A%2F%2Ffonts.googleapis.com%2Fcss%3Ffamily%3DPoppins;entryX=0.96;entryY=0.752;entryDx=0;entryDy=0;entryPerimeter=0;" parent="1" source="xo-ipE_-ma14xCwWNhMG-7" target="xo-ipE_-ma14xCwWNhMG-5" edge="1">
          <mxGeometry relative="1" as="geometry">
            <mxPoint x="630.0000000000001" y="141.5" as="targetPoint" />
            <Array as="points">
              <mxPoint x="720" y="150" />
              <mxPoint x="720" y="150" />
            </Array>
          </mxGeometry>
        </mxCell>
        <mxCell id="xo-ipE_-ma14xCwWNhMG-7" value="User DB" style="html=1;overflow=block;blockSpacing=1;whiteSpace=wrap;shape=partialRectangle;right=0;left=0;fontSize=16.7;fontFamily=Poppins;fontColor=#3a414a;spacing=0;strokeColor=#000000;strokeOpacity=100;rounded=1;absoluteArcSize=1;arcSize=9;strokeWidth=3.8;lucidId=l7xzd_vHvqdj;fontSource=https%3A%2F%2Ffonts.googleapis.com%2Fcss%3Ffamily%3DPoppins;" parent="1" vertex="1">
          <mxGeometry x="1081" y="105" width="150" height="61" as="geometry" />
        </mxCell>
        <mxCell id="fowYS_KOLcoLQ7M-jsU--24" style="edgeStyle=orthogonalEdgeStyle;rounded=0;orthogonalLoop=1;jettySize=auto;html=1;entryX=0.645;entryY=0;entryDx=0;entryDy=0;strokeWidth=4;endArrow=none;endFill=0;startArrow=block;startFill=1;entryPerimeter=0;exitX=0.013;exitY=0.326;exitDx=0;exitDy=0;exitPerimeter=0;" parent="1" source="xo-ipE_-ma14xCwWNhMG-8" target="xo-ipE_-ma14xCwWNhMG-3" edge="1">
          <mxGeometry relative="1" as="geometry">
            <Array as="points">
              <mxPoint x="190" y="484" />
              <mxPoint x="190" y="769" />
            </Array>
          </mxGeometry>
        </mxCell>
        <mxCell id="WaBpSPAJfXIjd7XNNRuX-8" style="edgeStyle=orthogonalEdgeStyle;rounded=0;orthogonalLoop=1;jettySize=auto;html=1;entryX=0.835;entryY=0.008;entryDx=0;entryDy=0;entryPerimeter=0;endArrow=block;endFill=1;strokeWidth=3.8;" parent="1" source="xo-ipE_-ma14xCwWNhMG-8" target="xo-ipE_-ma14xCwWNhMG-3" edge="1">
          <mxGeometry relative="1" as="geometry">
            <Array as="points">
              <mxPoint x="214" y="520" />
            </Array>
          </mxGeometry>
        </mxCell>
        <mxCell id="xo-ipE_-ma14xCwWNhMG-8" value="Fetch &lt;br&gt;Location" style="html=1;overflow=block;blockSpacing=1;whiteSpace=wrap;ellipse;fontSize=16.7;fontFamily=Poppins;fontColor=#3a414a;spacing=0;strokeColor=#000000;strokeOpacity=100;rounded=1;absoluteArcSize=1;arcSize=9;strokeWidth=3.8;lucidId=H8xzJx2Qiluk;fontSource=https%3A%2F%2Ffonts.googleapis.com%2Fcss%3Ffamily%3DPoppins;" parent="1" vertex="1">
          <mxGeometry x="562" y="446" width="115" height="116" as="geometry" />
        </mxCell>
        <mxCell id="xo-ipE_-ma14xCwWNhMG-9" value="Username, password" style="html=1;overflow=block;blockSpacing=1;whiteSpace=wrap;fontSize=16.7;fontFamily=Poppins;fontColor=#3a414a;spacing=3.8;strokeOpacity=0;fillOpacity=0;rounded=1;absoluteArcSize=1;arcSize=9;rotation=0;fillColor=#ffffff;strokeWidth=0.8;lucidId=a9xzhA.d-WZM;strokeColor=#000000;fontSource=https%3A%2F%2Ffonts.googleapis.com%2Fcss%3Ffamily%3DPoppins;" parent="1" vertex="1">
          <mxGeometry x="799.14" y="71" width="115" height="57" as="geometry" />
        </mxCell>
        <mxCell id="xo-ipE_-ma14xCwWNhMG-11" value="Location" style="html=1;overflow=block;blockSpacing=1;whiteSpace=wrap;fontSize=16.7;fontFamily=Poppins;fontColor=#3a414a;spacing=3.8;strokeOpacity=0;fillOpacity=0;rounded=1;absoluteArcSize=1;arcSize=9;fillColor=#ffffff;strokeWidth=0.8;lucidId=09xz02aI0nSI;strokeColor=#000000;fontSource=https%3A%2F%2Ffonts.googleapis.com%2Fcss%3Ffamily%3DPoppins;" parent="1" vertex="1">
          <mxGeometry x="312" y="444.5" width="180" height="45" as="geometry" />
        </mxCell>
        <mxCell id="xo-ipE_-ma14xCwWNhMG-13" style="edgeStyle=orthogonalEdgeStyle;rounded=0;orthogonalLoop=1;jettySize=auto;html=1;exitX=0.673;exitY=0.984;exitDx=0;exitDy=0;strokeWidth=4;fontFamily=Poppins;fontSize=17;endArrow=block;endFill=1;strokeColor=#000000;fontSource=https%3A%2F%2Ffonts.googleapis.com%2Fcss%3Ffamily%3DPoppins;exitPerimeter=0;" parent="1" source="xo-ipE_-ma14xCwWNhMG-14" edge="1">
          <mxGeometry relative="1" as="geometry">
            <mxPoint x="820" y="967.1700000000001" as="targetPoint" />
            <Array as="points">
              <mxPoint x="639" y="967" />
            </Array>
            <mxPoint x="639.3699999999999" y="858.5020000000002" as="sourcePoint" />
          </mxGeometry>
        </mxCell>
        <mxCell id="xo-ipE_-ma14xCwWNhMG-14" value="View restaurant" style="html=1;overflow=block;blockSpacing=1;whiteSpace=wrap;ellipse;fontSize=16.7;fontFamily=Poppins;fontColor=#3a414a;spacing=0;strokeColor=#000000;strokeOpacity=100;rounded=1;absoluteArcSize=1;arcSize=9;strokeWidth=3.8;lucidId=O-xzwmCMOyGv;fontSource=https%3A%2F%2Ffonts.googleapis.com%2Fcss%3Ffamily%3DPoppins;" parent="1" vertex="1">
          <mxGeometry x="563" y="742.5" width="115" height="116" as="geometry" />
        </mxCell>
        <mxCell id="xo-ipE_-ma14xCwWNhMG-15" value="" style="html=1;jettySize=18;whiteSpace=wrap;fontSize=13;strokeColor=#000000;strokeOpacity=100;strokeWidth=3.8;rounded=1;arcSize=12;edgeStyle=orthogonalEdgeStyle;startArrow=none;endArrow=block;endFill=1;exitX=0.5;exitY=1.016;exitPerimeter=0;entryX=0.5;entryY=0;lucidId=Y-xztIRuLFMF;fontFamily=Poppins;fontSource=https%3A%2F%2Ffonts.googleapis.com%2Fcss%3Ffamily%3DPoppins;entryDx=0;entryDy=0;" parent="1" source="xo-ipE_-ma14xCwWNhMG-8" target="xo-ipE_-ma14xCwWNhMG-14" edge="1">
          <mxGeometry width="100" height="100" relative="1" as="geometry">
            <Array as="points">
              <mxPoint x="621" y="564" />
              <mxPoint x="621" y="652" />
              <mxPoint x="621" y="652" />
            </Array>
            <mxPoint x="610.5" y="636.1440000000002" as="targetPoint" />
          </mxGeometry>
        </mxCell>
        <mxCell id="xo-ipE_-ma14xCwWNhMG-16" value="" style="html=1;jettySize=18;whiteSpace=wrap;fontSize=13;strokeColor=#000000;strokeOpacity=100;strokeWidth=3.8;rounded=1;arcSize=12;edgeStyle=orthogonalEdgeStyle;startArrow=none;endArrow=block;endFill=1;exitX=-0.016;exitY=0.5;exitPerimeter=0;lucidId=t_xzVu-ZxWuy;fontFamily=Poppins;fontSource=https%3A%2F%2Ffonts.googleapis.com%2Fcss%3Ffamily%3DPoppins;entryX=1;entryY=0.5;entryDx=0;entryDy=0;" parent="1" edge="1">
          <mxGeometry width="100" height="100" relative="1" as="geometry">
            <Array as="points">
              <mxPoint x="551" y="785" />
              <mxPoint x="340" y="785" />
              <mxPoint x="340" y="784" />
            </Array>
            <mxPoint x="235" y="784" as="targetPoint" />
            <mxPoint x="560.1600000000001" y="785.5000000000002" as="sourcePoint" />
          </mxGeometry>
        </mxCell>
        <mxCell id="xo-ipE_-ma14xCwWNhMG-17" value="menu" style="html=1;overflow=block;blockSpacing=1;whiteSpace=wrap;fontSize=16.7;fontFamily=Poppins;fontColor=#3a414a;spacing=3.8;strokeOpacity=0;fillOpacity=0;rounded=1;absoluteArcSize=1;arcSize=9;fillColor=#ffffff;strokeWidth=0.8;lucidId=C_xzICkyio-H;strokeColor=#000000;fontSource=https%3A%2F%2Ffonts.googleapis.com%2Fcss%3Ffamily%3DPoppins;" parent="1" vertex="1">
          <mxGeometry x="349" y="742.5" width="180" height="45" as="geometry" />
        </mxCell>
        <mxCell id="xo-ipE_-ma14xCwWNhMG-18" value="suggest&lt;br&gt;new restaurant" style="html=1;overflow=block;blockSpacing=1;whiteSpace=wrap;ellipse;fontSize=16.7;fontFamily=Poppins;fontColor=#3a414a;spacing=3.8;strokeColor=#000000;strokeOpacity=100;rounded=1;absoluteArcSize=1;arcSize=9;strokeWidth=3.8;lucidId=Okyzy4S26Xhx;fontSource=https%3A%2F%2Ffonts.googleapis.com%2Fcss%3Ffamily%3DPoppins;" parent="1" vertex="1">
          <mxGeometry x="559" y="1348" width="115" height="113" as="geometry" />
        </mxCell>
        <mxCell id="xo-ipE_-ma14xCwWNhMG-20" value="" style="html=1;jettySize=18;whiteSpace=wrap;fontSize=13;strokeColor=#000000;strokeOpacity=100;strokeWidth=3.8;rounded=1;arcSize=12;edgeStyle=orthogonalEdgeStyle;startArrow=none;endArrow=block;endFill=1;lucidId=enyzx~iBJPW7;fontFamily=Poppins;fontSource=https%3A%2F%2Ffonts.googleapis.com%2Fcss%3Ffamily%3DPoppins;exitX=0.996;exitY=0.375;exitDx=0;exitDy=0;exitPerimeter=0;" parent="1" target="xo-ipE_-ma14xCwWNhMG-54" edge="1">
          <mxGeometry width="100" height="100" relative="1" as="geometry">
            <Array as="points">
              <mxPoint x="880" y="1412" />
              <mxPoint x="980" y="1412" />
            </Array>
            <mxPoint x="673.54" y="1412.375" as="sourcePoint" />
            <mxPoint x="1020" y="1420" as="targetPoint" />
          </mxGeometry>
        </mxCell>
        <mxCell id="0rFcWoOh6gEUKjFKcU0K-9" style="edgeStyle=orthogonalEdgeStyle;shape=connector;rounded=0;orthogonalLoop=1;jettySize=auto;html=1;exitX=0.5;exitY=1;exitDx=0;exitDy=0;labelBackgroundColor=default;strokeColor=default;strokeWidth=4;fontFamily=Helvetica;fontSize=11;fontColor=default;endArrow=block;endFill=1;sourcePerimeterSpacing=0;entryX=0;entryY=0.5;entryDx=0;entryDy=0;" parent="1" target="0rFcWoOh6gEUKjFKcU0K-10" edge="1">
          <mxGeometry relative="1" as="geometry">
            <mxPoint x="1091.964" y="625.325" as="targetPoint" />
            <mxPoint x="879.5" y="537.9999999999998" as="sourcePoint" />
            <Array as="points">
              <mxPoint x="880" y="628" />
              <mxPoint x="893" y="628" />
            </Array>
          </mxGeometry>
        </mxCell>
        <mxCell id="xo-ipE_-ma14xCwWNhMG-23" value="4.1&lt;br&gt;Verify location" style="html=1;overflow=block;blockSpacing=1;whiteSpace=wrap;ellipse;fontSize=16.7;fontFamily=Poppins;fontColor=#3a414a;spacing=0;strokeColor=#000000;strokeOpacity=100;rounded=1;absoluteArcSize=1;arcSize=9;strokeWidth=3.8;lucidId=9qyznDKWHyti;fontSource=https%3A%2F%2Ffonts.googleapis.com%2Fcss%3Ffamily%3DPoppins;" parent="1" vertex="1">
          <mxGeometry x="809" y="446" width="115" height="116" as="geometry" />
        </mxCell>
        <mxCell id="xo-ipE_-ma14xCwWNhMG-24" value="" style="html=1;jettySize=18;whiteSpace=wrap;fontSize=13;strokeColor=#000000;strokeOpacity=100;strokeWidth=3.8;rounded=1;arcSize=12;edgeStyle=orthogonalEdgeStyle;startArrow=none;endArrow=block;endFill=1;exitX=0.961;exitY=0.267;exitPerimeter=0;entryX=0.039;entryY=0.267;entryPerimeter=0;lucidId=~qyzo~Shcmzk;fontFamily=Poppins;fontSource=https%3A%2F%2Ffonts.googleapis.com%2Fcss%3Ffamily%3DPoppins;" parent="1" source="xo-ipE_-ma14xCwWNhMG-8" target="xo-ipE_-ma14xCwWNhMG-23" edge="1">
          <mxGeometry width="100" height="100" relative="1" as="geometry">
            <Array as="points" />
          </mxGeometry>
        </mxCell>
        <mxCell id="xo-ipE_-ma14xCwWNhMG-25" value="" style="html=1;jettySize=18;whiteSpace=wrap;fontSize=13;strokeColor=#000000;strokeOpacity=100;strokeWidth=3.8;rounded=1;arcSize=12;edgeStyle=orthogonalEdgeStyle;startArrow=none;endArrow=block;endFill=1;exitX=0.037;exitY=0.728;exitPerimeter=0;entryX=0.963;entryY=0.728;entryPerimeter=0;lucidId=psyzKqz3XAYA;fontFamily=Poppins;fontSource=https%3A%2F%2Ffonts.googleapis.com%2Fcss%3Ffamily%3DPoppins;" parent="1" edge="1">
          <mxGeometry width="100" height="100" relative="1" as="geometry">
            <Array as="points" />
            <mxPoint x="813.2550000000001" y="521.448" as="sourcePoint" />
            <mxPoint x="672.7450000000001" y="521.448" as="targetPoint" />
          </mxGeometry>
        </mxCell>
        <mxCell id="xo-ipE_-ma14xCwWNhMG-26" style="edgeStyle=orthogonalEdgeStyle;rounded=0;orthogonalLoop=1;jettySize=auto;html=1;strokeWidth=4;fontFamily=Poppins;fontSize=17;endArrow=block;endFill=1;strokeColor=#000000;fontSource=https%3A%2F%2Ffonts.googleapis.com%2Fcss%3Ffamily%3DPoppins;entryX=0.989;entryY=0.557;entryDx=0;entryDy=0;entryPerimeter=0;" parent="1" target="xo-ipE_-ma14xCwWNhMG-14" edge="1">
          <mxGeometry relative="1" as="geometry">
            <mxPoint x="680" y="807" as="targetPoint" />
            <Array as="points">
              <mxPoint x="1141" y="807" />
              <mxPoint x="680" y="807" />
            </Array>
            <mxPoint x="1141" y="807" as="sourcePoint" />
          </mxGeometry>
        </mxCell>
        <mxCell id="xo-ipE_-ma14xCwWNhMG-27" value="Restaurant DB&amp;nbsp;" style="html=1;overflow=block;blockSpacing=1;whiteSpace=wrap;shape=partialRectangle;right=0;left=0;fontSize=16.7;fontColor=#3a414a;spacing=0;strokeColor=#000000;strokeOpacity=100;rounded=1;absoluteArcSize=1;arcSize=9;strokeWidth=3.8;lucidId=zsyzoMuQpBR6;fontFamily=Poppins;fontSource=https%3A%2F%2Ffonts.googleapis.com%2Fcss%3Ffamily%3DPoppins;" parent="1" vertex="1">
          <mxGeometry x="1081" y="466.5" width="148" height="75" as="geometry" />
        </mxCell>
        <mxCell id="xo-ipE_-ma14xCwWNhMG-28" value="" style="html=1;jettySize=18;whiteSpace=wrap;fontSize=13;strokeColor=#000000;strokeOpacity=100;strokeWidth=3.8;rounded=1;arcSize=12;edgeStyle=orthogonalEdgeStyle;startArrow=none;endArrow=block;endFill=1;exitX=0.972;exitY=0.291;exitPerimeter=0;entryX=0;entryY=0.178;entryPerimeter=0;lucidId=EsyzhUDPtnMK;fontFamily=Poppins;fontSource=https%3A%2F%2Ffonts.googleapis.com%2Fcss%3Ffamily%3DPoppins;" parent="1" source="xo-ipE_-ma14xCwWNhMG-23" target="xo-ipE_-ma14xCwWNhMG-27" edge="1">
          <mxGeometry width="100" height="100" relative="1" as="geometry">
            <Array as="points" />
          </mxGeometry>
        </mxCell>
        <mxCell id="xo-ipE_-ma14xCwWNhMG-29" value="" style="html=1;jettySize=18;whiteSpace=wrap;fontSize=13;strokeColor=#000000;strokeOpacity=100;strokeWidth=3.8;rounded=1;arcSize=12;edgeStyle=orthogonalEdgeStyle;startArrow=none;endArrow=block;endFill=1;exitX=0;exitY=0.76;exitPerimeter=0;entryX=0.988;entryY=0.669;entryPerimeter=0;lucidId=FsyzWkdSwQPi;fontFamily=Poppins;fontSource=https%3A%2F%2Ffonts.googleapis.com%2Fcss%3Ffamily%3DPoppins;" parent="1" source="xo-ipE_-ma14xCwWNhMG-27" target="xo-ipE_-ma14xCwWNhMG-23" edge="1">
          <mxGeometry width="100" height="100" relative="1" as="geometry">
            <Array as="points" />
          </mxGeometry>
        </mxCell>
        <mxCell id="xo-ipE_-ma14xCwWNhMG-30" value="Location" style="html=1;overflow=block;blockSpacing=1;whiteSpace=wrap;fontSize=16.7;fontFamily=Poppins;fontColor=#3a414a;spacing=3.8;strokeOpacity=0;fillOpacity=0;rounded=1;absoluteArcSize=1;arcSize=9;fillColor=#ffffff;strokeWidth=0.8;lucidId=_tyzfMEsZIEU;strokeColor=#000000;fontSource=https%3A%2F%2Ffonts.googleapis.com%2Fcss%3Ffamily%3DPoppins;" parent="1" vertex="1">
          <mxGeometry x="648" y="437" width="180" height="45" as="geometry" />
        </mxCell>
        <mxCell id="xo-ipE_-ma14xCwWNhMG-31" value="Restaurant list" style="html=1;overflow=block;blockSpacing=1;whiteSpace=wrap;fontSize=16.7;fontFamily=Poppins;fontColor=#3a414a;spacing=3.8;strokeOpacity=0;fillOpacity=0;rounded=1;absoluteArcSize=1;arcSize=9;fillColor=#ffffff;strokeWidth=0.8;lucidId=uuyzfaIONObD;strokeColor=#000000;fontSource=https%3A%2F%2Ffonts.googleapis.com%2Fcss%3Ffamily%3DPoppins;" parent="1" vertex="1">
          <mxGeometry x="656.5" y="517.5" width="180" height="45" as="geometry" />
        </mxCell>
        <mxCell id="xo-ipE_-ma14xCwWNhMG-32" value="Restaurant" style="html=1;overflow=block;blockSpacing=1;whiteSpace=wrap;fontSize=16.7;fontFamily=Poppins;fontColor=#3a414a;spacing=3.8;strokeOpacity=0;fillOpacity=0;rounded=1;absoluteArcSize=1;arcSize=9;fillColor=#ffffff;strokeWidth=0.8;lucidId=hxyzKl.xqAcC;strokeColor=#000000;fontSource=https%3A%2F%2Ffonts.googleapis.com%2Fcss%3Ffamily%3DPoppins;" parent="1" vertex="1">
          <mxGeometry x="627" y="630" width="108" height="45" as="geometry" />
        </mxCell>
        <mxCell id="xo-ipE_-ma14xCwWNhMG-34" value="Review DB" style="html=1;overflow=block;blockSpacing=1;whiteSpace=wrap;shape=partialRectangle;right=0;left=0;fontSize=16.7;fontColor=#3a414a;spacing=0;strokeColor=#000000;strokeOpacity=100;rounded=1;absoluteArcSize=1;arcSize=9;strokeWidth=3.8;lucidId=-xyzr2n.0XN1;fontFamily=Poppins;fontSource=https%3A%2F%2Ffonts.googleapis.com%2Fcss%3Ffamily%3DPoppins;" parent="1" vertex="1">
          <mxGeometry x="1078" y="1091" width="150" height="75" as="geometry" />
        </mxCell>
        <mxCell id="xo-ipE_-ma14xCwWNhMG-35" value="Menu" style="html=1;overflow=block;blockSpacing=1;whiteSpace=wrap;fontSize=16.7;fontFamily=Poppins;fontColor=#3a414a;spacing=3.8;strokeOpacity=0;fillOpacity=0;rounded=1;absoluteArcSize=1;arcSize=9;fillColor=#ffffff;strokeWidth=0.8;lucidId=wyyzV5bePwQ7;strokeColor=#000000;fontSource=https%3A%2F%2Ffonts.googleapis.com%2Fcss%3Ffamily%3DPoppins;" parent="1" vertex="1">
          <mxGeometry x="814" y="804.5" width="180" height="45" as="geometry" />
        </mxCell>
        <mxCell id="xo-ipE_-ma14xCwWNhMG-36" style="edgeStyle=orthogonalEdgeStyle;rounded=0;orthogonalLoop=1;jettySize=auto;html=1;strokeWidth=4;fontFamily=Poppins;fontSize=17;endArrow=block;endFill=1;strokeColor=#000000;fontSource=https%3A%2F%2Ffonts.googleapis.com%2Fcss%3Ffamily%3DPoppins;exitX=0.33;exitY=0.975;exitDx=0;exitDy=0;exitPerimeter=0;" parent="1" edge="1">
          <mxGeometry relative="1" as="geometry">
            <mxPoint x="607.9499999999998" y="855.6000000000001" as="sourcePoint" />
            <Array as="points">
              <mxPoint x="608" y="890" />
              <mxPoint x="608" y="890" />
            </Array>
            <mxPoint x="608" y="1070" as="targetPoint" />
          </mxGeometry>
        </mxCell>
        <mxCell id="xo-ipE_-ma14xCwWNhMG-37" style="edgeStyle=orthogonalEdgeStyle;rounded=0;orthogonalLoop=1;jettySize=auto;html=1;strokeWidth=4;fontFamily=Poppins;fontSize=17;endArrow=block;endFill=1;strokeColor=#000000;fontSource=https%3A%2F%2Ffonts.googleapis.com%2Fcss%3Ffamily%3DPoppins;exitX=0;exitY=0.5;exitDx=0;exitDy=0;" parent="1" source="WaBpSPAJfXIjd7XNNRuX-23" edge="1">
          <mxGeometry relative="1" as="geometry">
            <mxPoint x="220" y="830" as="targetPoint" />
            <mxPoint x="550" y="1129" as="sourcePoint" />
            <Array as="points">
              <mxPoint x="220" y="1271" />
            </Array>
          </mxGeometry>
        </mxCell>
        <mxCell id="xo-ipE_-ma14xCwWNhMG-40" value="All Review" style="html=1;overflow=block;blockSpacing=1;whiteSpace=wrap;fontSize=16.7;fontFamily=Poppins;fontColor=#3a414a;spacing=3.8;strokeOpacity=0;fillOpacity=0;rounded=1;absoluteArcSize=1;arcSize=9;fillColor=#ffffff;strokeWidth=0.8;lucidId=GAyzLSKxjBzH;rotation=0;strokeColor=#000000;fontSource=https%3A%2F%2Ffonts.googleapis.com%2Fcss%3Ffamily%3DPoppins;" parent="1" vertex="1">
          <mxGeometry x="299" y="1230" width="180" height="45" as="geometry" />
        </mxCell>
        <mxCell id="xo-ipE_-ma14xCwWNhMG-45" value="Username, password" style="html=1;overflow=block;blockSpacing=1;whiteSpace=wrap;fontSize=16.7;fontFamily=Poppins;fontColor=#3a414a;spacing=3.8;strokeOpacity=0;fillOpacity=0;rounded=1;absoluteArcSize=1;arcSize=9;rotation=0;fillColor=#ffffff;strokeWidth=0.8;lucidId=jGyzwDNpHL6E;strokeColor=#000000;fontSource=https%3A%2F%2Ffonts.googleapis.com%2Fcss%3Ffamily%3DPoppins;" parent="1" vertex="1">
          <mxGeometry x="358" y="80" width="78" height="57" as="geometry" />
        </mxCell>
        <mxCell id="xo-ipE_-ma14xCwWNhMG-46" value="Success/ Fail" style="html=1;overflow=block;blockSpacing=1;whiteSpace=wrap;fontSize=16.7;fontFamily=Poppins;fontColor=#3a414a;spacing=3.8;strokeOpacity=0;fillOpacity=0;rounded=1;absoluteArcSize=1;arcSize=9;rotation=0;fillColor=#ffffff;strokeWidth=0.8;lucidId=uIyzD3HdQT6N;strokeColor=#000000;fontSource=https%3A%2F%2Ffonts.googleapis.com%2Fcss%3Ffamily%3DPoppins;" parent="1" vertex="1">
          <mxGeometry x="814" y="148" width="78" height="57" as="geometry" />
        </mxCell>
        <mxCell id="xo-ipE_-ma14xCwWNhMG-54" value="Suggestion DB" style="html=1;overflow=block;blockSpacing=1;whiteSpace=wrap;shape=partialRectangle;right=0;left=0;fontSize=16.7;fontColor=#3a414a;spacing=0;strokeColor=#000000;strokeOpacity=100;rounded=1;absoluteArcSize=1;arcSize=9;strokeWidth=3.8;lucidId=zsyzoMuQpBR6;fontFamily=Poppins;fontSource=https%3A%2F%2Ffonts.googleapis.com%2Fcss%3Ffamily%3DPoppins;" parent="1" vertex="1">
          <mxGeometry x="1088" y="1374" width="150" height="75" as="geometry" />
        </mxCell>
        <mxCell id="xo-ipE_-ma14xCwWNhMG-56" value="Location" style="html=1;overflow=block;blockSpacing=1;whiteSpace=wrap;fontSize=16.7;fontFamily=Poppins;fontColor=#3a414a;spacing=3.8;strokeOpacity=0;fillOpacity=0;rounded=1;absoluteArcSize=1;arcSize=9;fillColor=#ffffff;strokeWidth=0.8;lucidId=_tyzfMEsZIEU;rotation=0;strokeColor=#000000;fontSource=https%3A%2F%2Ffonts.googleapis.com%2Fcss%3Ffamily%3DPoppins;" parent="1" vertex="1">
          <mxGeometry x="931" y="446.5" width="100" height="20" as="geometry" />
        </mxCell>
        <mxCell id="xo-ipE_-ma14xCwWNhMG-57" value="Restaurant list" style="html=1;overflow=block;blockSpacing=1;whiteSpace=wrap;fontSize=16.7;fontFamily=Poppins;fontColor=#3a414a;spacing=3.8;strokeOpacity=0;fillOpacity=0;rounded=1;absoluteArcSize=1;arcSize=9;fillColor=#ffffff;strokeWidth=0.8;lucidId=uuyzfaIONObD;strokeColor=#000000;fontSource=https%3A%2F%2Ffonts.googleapis.com%2Fcss%3Ffamily%3DPoppins;" parent="1" vertex="1">
          <mxGeometry x="910" y="521" width="180" height="45" as="geometry" />
        </mxCell>
        <mxCell id="xo-ipE_-ma14xCwWNhMG-59" style="edgeStyle=orthogonalEdgeStyle;rounded=0;orthogonalLoop=1;jettySize=auto;html=1;strokeWidth=4;fontFamily=Poppins;fontSize=17;endArrow=block;endFill=1;strokeColor=#000000;fontSource=https%3A%2F%2Ffonts.googleapis.com%2Fcss%3Ffamily%3DPoppins;exitX=0.989;exitY=0.388;exitDx=0;exitDy=0;exitPerimeter=0;entryX=-0.008;entryY=0.304;entryDx=0;entryDy=0;entryPerimeter=0;" parent="1" edge="1">
          <mxGeometry relative="1" as="geometry">
            <mxPoint x="646.9950000000001" y="1128.3280000000002" as="sourcePoint" />
            <mxPoint x="1076.8000000000002" y="1128.8" as="targetPoint" />
            <Array as="points">
              <mxPoint x="861" y="1128" />
            </Array>
          </mxGeometry>
        </mxCell>
        <mxCell id="xo-ipE_-ma14xCwWNhMG-60" value="Manage review" style="html=1;overflow=block;blockSpacing=1;whiteSpace=wrap;ellipse;fontSize=16.7;fontFamily=Poppins;fontColor=#3a414a;spacing=0;strokeColor=#000000;strokeOpacity=100;rounded=1;absoluteArcSize=1;arcSize=9;strokeWidth=3.8;lucidId=HByzdT4c9xpi;fontSource=https%3A%2F%2Ffonts.googleapis.com%2Fcss%3Ffamily%3DPoppins;" parent="1" vertex="1">
          <mxGeometry x="556" y="1070.5" width="115" height="116" as="geometry" />
        </mxCell>
        <mxCell id="xo-ipE_-ma14xCwWNhMG-61" style="edgeStyle=orthogonalEdgeStyle;rounded=0;orthogonalLoop=1;jettySize=auto;html=1;strokeWidth=4;fontFamily=Poppins;fontSize=17;endArrow=none;endFill=0;strokeColor=#000000;fontSource=https%3A%2F%2Ffonts.googleapis.com%2Fcss%3Ffamily%3DPoppins;startArrow=block;startFill=1;exitX=0.996;exitY=0.636;exitDx=0;exitDy=0;exitPerimeter=0;" parent="1" source="fowYS_KOLcoLQ7M-jsU--7" edge="1">
          <mxGeometry relative="1" as="geometry">
            <mxPoint x="679.3375000000001" y="331.86699999999996" as="sourcePoint" />
            <mxPoint x="1098" y="334" as="targetPoint" />
            <Array as="points">
              <mxPoint x="1098" y="332" />
            </Array>
          </mxGeometry>
        </mxCell>
        <mxCell id="xo-ipE_-ma14xCwWNhMG-62" value="Add to &lt;br&gt;favorite" style="html=1;overflow=block;blockSpacing=1;whiteSpace=wrap;ellipse;fontSize=16.7;fontFamily=Poppins;fontColor=#3a414a;spacing=0;strokeColor=#000000;strokeOpacity=100;rounded=1;absoluteArcSize=1;arcSize=9;strokeWidth=3.8;lucidId=HByzdT4c9xpi;fontSource=https%3A%2F%2Ffonts.googleapis.com%2Fcss%3Ffamily%3DPoppins;" parent="1" vertex="1">
          <mxGeometry x="822" y="907.1700000000001" width="115" height="116" as="geometry" />
        </mxCell>
        <mxCell id="xo-ipE_-ma14xCwWNhMG-63" value="Drops DB" style="html=1;overflow=block;blockSpacing=1;whiteSpace=wrap;shape=partialRectangle;right=0;left=0;fontSize=16.7;fontColor=#3a414a;spacing=0;strokeColor=#000000;strokeOpacity=100;rounded=1;absoluteArcSize=1;arcSize=9;strokeWidth=3.8;lucidId=-xyzr2n.0XN1;fontFamily=Poppins;fontSource=https%3A%2F%2Ffonts.googleapis.com%2Fcss%3Ffamily%3DPoppins;" parent="1" vertex="1">
          <mxGeometry x="1081" y="274" width="150" height="75" as="geometry" />
        </mxCell>
        <mxCell id="fowYS_KOLcoLQ7M-jsU--1" value="All Review" style="html=1;overflow=block;blockSpacing=1;whiteSpace=wrap;fontSize=16.7;fontFamily=Poppins;fontColor=#3a414a;spacing=3.8;strokeOpacity=0;fillOpacity=0;rounded=1;absoluteArcSize=1;arcSize=9;fillColor=#ffffff;strokeWidth=0.8;lucidId=mByzYvm7gy~X;strokeColor=#000000;fontSource=https%3A%2F%2Ffonts.googleapis.com%2Fcss%3Ffamily%3DPoppins;" parent="1" vertex="1">
          <mxGeometry x="780" y="1230" width="180" height="45" as="geometry" />
        </mxCell>
        <mxCell id="fowYS_KOLcoLQ7M-jsU--3" value="&amp;nbsp;Review" style="html=1;overflow=block;blockSpacing=1;whiteSpace=wrap;fontSize=16.7;fontFamily=Poppins;fontColor=#3a414a;spacing=3.8;strokeOpacity=0;fillOpacity=0;rounded=1;absoluteArcSize=1;arcSize=9;fillColor=#ffffff;strokeWidth=0.8;lucidId=GAyzLSKxjBzH;rotation=0;strokeColor=#000000;fontSource=https%3A%2F%2Ffonts.googleapis.com%2Fcss%3Ffamily%3DPoppins;" parent="1" vertex="1">
          <mxGeometry x="529" y="921.17" width="80" height="45" as="geometry" />
        </mxCell>
        <mxCell id="fowYS_KOLcoLQ7M-jsU--7" value="DROPS" style="html=1;overflow=block;blockSpacing=1;whiteSpace=wrap;ellipse;fontSize=16.7;fontFamily=Poppins;fontColor=#3a414a;spacing=3.8;strokeColor=#000000;strokeOpacity=100;rounded=1;absoluteArcSize=1;arcSize=9;strokeWidth=3.8;lucidId=E4xzczD-_cgz;fontSource=https%3A%2F%2Ffonts.googleapis.com%2Fcss%3Ffamily%3DPoppins;" parent="1" vertex="1">
          <mxGeometry x="563" y="260" width="113.5" height="113" as="geometry" />
        </mxCell>
        <mxCell id="fowYS_KOLcoLQ7M-jsU--12" style="edgeStyle=orthogonalEdgeStyle;rounded=0;orthogonalLoop=1;jettySize=auto;html=1;strokeWidth=4;endArrow=block;endFill=1;fontFamily=Poppins;strokeColor=#000000;exitX=0;exitY=0.5;exitDx=0;exitDy=0;fontSource=https%3A%2F%2Ffonts.googleapis.com%2Fcss%3Ffamily%3DPoppins;" parent="1" edge="1">
          <mxGeometry relative="1" as="geometry">
            <mxPoint x="563.9999999999989" y="327.4999999999999" as="sourcePoint" />
            <mxPoint x="164" y="770" as="targetPoint" />
            <Array as="points">
              <mxPoint x="164" y="328" />
            </Array>
          </mxGeometry>
        </mxCell>
        <mxCell id="fowYS_KOLcoLQ7M-jsU--13" value="Video" style="html=1;overflow=block;blockSpacing=1;whiteSpace=wrap;fontSize=16.7;fontFamily=Poppins;fontColor=#3a414a;spacing=3.8;strokeOpacity=0;fillOpacity=0;rounded=1;absoluteArcSize=1;arcSize=9;fillColor=#ffffff;strokeWidth=0.8;lucidId=_tyzfMEsZIEU;strokeColor=#000000;fontSource=https%3A%2F%2Ffonts.googleapis.com%2Fcss%3Ffamily%3DPoppins;" parent="1" vertex="1">
          <mxGeometry x="297" y="328" width="180" height="45" as="geometry" />
        </mxCell>
        <mxCell id="fowYS_KOLcoLQ7M-jsU--16" style="edgeStyle=orthogonalEdgeStyle;rounded=0;orthogonalLoop=1;jettySize=auto;html=1;entryX=0;entryY=0.5;entryDx=0;entryDy=0;strokeWidth=4;fontFamily=Poppins;fontSize=17;endArrow=block;endFill=1;strokeColor=#000000;fontSource=https%3A%2F%2Ffonts.googleapis.com%2Fcss%3Ffamily%3DPoppins;exitX=1.009;exitY=0.457;exitDx=0;exitDy=0;exitPerimeter=0;" parent="1" edge="1">
          <mxGeometry relative="1" as="geometry">
            <mxPoint x="938.0350000000001" y="965.182" as="sourcePoint" />
            <Array as="points">
              <mxPoint x="1064" y="965.1700000000001" />
            </Array>
            <mxPoint x="1080" y="964.6700000000001" as="targetPoint" />
          </mxGeometry>
        </mxCell>
        <mxCell id="fowYS_KOLcoLQ7M-jsU--17" value="Favourite DB" style="html=1;overflow=block;blockSpacing=1;whiteSpace=wrap;shape=partialRectangle;right=0;left=0;fontSize=16.7;fontColor=#3a414a;spacing=0;strokeColor=#000000;strokeOpacity=100;rounded=1;absoluteArcSize=1;arcSize=9;strokeWidth=3.8;lucidId=-xyzr2n.0XN1;fontFamily=Poppins;fontSource=https%3A%2F%2Ffonts.googleapis.com%2Fcss%3Ffamily%3DPoppins;" parent="1" vertex="1">
          <mxGeometry x="1080" y="922.1700000000001" width="150" height="75" as="geometry" />
        </mxCell>
        <mxCell id="fowYS_KOLcoLQ7M-jsU--26" style="edgeStyle=orthogonalEdgeStyle;rounded=0;orthogonalLoop=1;jettySize=auto;html=1;strokeWidth=4;fontFamily=Poppins;fontSize=17;endArrow=block;endFill=1;strokeColor=#000000;fontSource=https%3A%2F%2Ffonts.googleapis.com%2Fcss%3Ffamily%3DPoppins;exitX=0.401;exitY=1.044;exitDx=0;exitDy=0;exitPerimeter=0;" parent="1" source="xo-ipE_-ma14xCwWNhMG-34" edge="1">
          <mxGeometry relative="1" as="geometry">
            <mxPoint x="1092" y="1277" as="sourcePoint" />
            <mxPoint x="676" y="1278" as="targetPoint" />
            <Array as="points">
              <mxPoint x="1138" y="1277" />
              <mxPoint x="1082" y="1277" />
            </Array>
          </mxGeometry>
        </mxCell>
        <mxCell id="WaBpSPAJfXIjd7XNNRuX-9" value="Restaurant list" style="html=1;overflow=block;blockSpacing=1;whiteSpace=wrap;fontSize=16.7;fontFamily=Poppins;fontColor=#3a414a;spacing=3.8;strokeOpacity=0;fillOpacity=0;rounded=1;absoluteArcSize=1;arcSize=9;fillColor=#ffffff;strokeWidth=0.8;lucidId=uuyzfaIONObD;strokeColor=#000000;fontSource=https%3A%2F%2Ffonts.googleapis.com%2Fcss%3Ffamily%3DPoppins;" parent="1" vertex="1">
          <mxGeometry x="309" y="518" width="180" height="45" as="geometry" />
        </mxCell>
        <mxCell id="WaBpSPAJfXIjd7XNNRuX-13" value="Restaurant details" style="html=1;overflow=block;blockSpacing=1;whiteSpace=wrap;fontSize=16.7;fontFamily=Poppins;fontColor=#3a414a;spacing=3.8;strokeOpacity=0;fillOpacity=0;rounded=1;absoluteArcSize=1;arcSize=9;fillColor=#ffffff;strokeWidth=0.8;lucidId=UMyzu.XHhByF;strokeColor=#000000;fontSource=https%3A%2F%2Ffonts.googleapis.com%2Fcss%3Ffamily%3DPoppins;" parent="1" vertex="1">
          <mxGeometry x="305" y="1365" width="180" height="45" as="geometry" />
        </mxCell>
        <mxCell id="WaBpSPAJfXIjd7XNNRuX-15" value="Item" style="html=1;overflow=block;blockSpacing=1;whiteSpace=wrap;fontSize=16.7;fontFamily=Poppins;fontColor=#3a414a;spacing=3.8;strokeOpacity=0;fillOpacity=0;rounded=1;absoluteArcSize=1;arcSize=9;fillColor=#ffffff;strokeWidth=0.8;lucidId=C_xzICkyio-H;strokeColor=#000000;fontSource=https%3A%2F%2Ffonts.googleapis.com%2Fcss%3Ffamily%3DPoppins;" parent="1" vertex="1">
          <mxGeometry x="650" y="877.17" width="50" height="45" as="geometry" />
        </mxCell>
        <mxCell id="WaBpSPAJfXIjd7XNNRuX-17" value="&amp;nbsp;Review" style="html=1;overflow=block;blockSpacing=1;whiteSpace=wrap;fontSize=16.7;fontFamily=Poppins;fontColor=#3a414a;spacing=3.8;strokeOpacity=0;fillOpacity=0;rounded=1;absoluteArcSize=1;arcSize=9;fillColor=#ffffff;strokeWidth=0.8;lucidId=GAyzLSKxjBzH;rotation=0;strokeColor=#000000;fontSource=https%3A%2F%2Ffonts.googleapis.com%2Fcss%3Ffamily%3DPoppins;" parent="1" vertex="1">
          <mxGeometry x="399" y="804.5" width="80" height="45" as="geometry" />
        </mxCell>
        <mxCell id="WaBpSPAJfXIjd7XNNRuX-18" value="Item" style="html=1;overflow=block;blockSpacing=1;whiteSpace=wrap;fontSize=16.7;fontFamily=Poppins;fontColor=#3a414a;spacing=3.8;strokeOpacity=0;fillOpacity=0;rounded=1;absoluteArcSize=1;arcSize=9;fillColor=#ffffff;strokeWidth=0.8;lucidId=C_xzICkyio-H;strokeColor=#000000;fontSource=https%3A%2F%2Ffonts.googleapis.com%2Fcss%3Ffamily%3DPoppins;" parent="1" vertex="1">
          <mxGeometry x="981" y="922.17" width="50" height="45" as="geometry" />
        </mxCell>
        <mxCell id="WaBpSPAJfXIjd7XNNRuX-19" value="&amp;nbsp;Review" style="html=1;overflow=block;blockSpacing=1;whiteSpace=wrap;fontSize=16.7;fontFamily=Poppins;fontColor=#3a414a;spacing=3.8;strokeOpacity=0;fillOpacity=0;rounded=1;absoluteArcSize=1;arcSize=9;fillColor=#ffffff;strokeWidth=0.8;lucidId=GAyzLSKxjBzH;rotation=0;strokeColor=#000000;fontSource=https%3A%2F%2Ffonts.googleapis.com%2Fcss%3Ffamily%3DPoppins;" parent="1" vertex="1">
          <mxGeometry x="773" y="1076.5" width="180" height="45" as="geometry" />
        </mxCell>
        <mxCell id="WaBpSPAJfXIjd7XNNRuX-23" value="VIew&lt;br&gt;Review" style="html=1;overflow=block;blockSpacing=1;whiteSpace=wrap;ellipse;fontSize=16.7;fontFamily=Poppins;fontColor=#3a414a;spacing=0;strokeColor=#000000;strokeOpacity=100;rounded=1;absoluteArcSize=1;arcSize=9;strokeWidth=3.8;lucidId=HByzdT4c9xpi;fontSource=https%3A%2F%2Ffonts.googleapis.com%2Fcss%3Ffamily%3DPoppins;" parent="1" vertex="1">
          <mxGeometry x="559" y="1213" width="115" height="116" as="geometry" />
        </mxCell>
        <mxCell id="0rFcWoOh6gEUKjFKcU0K-3" style="edgeStyle=orthogonalEdgeStyle;rounded=0;orthogonalLoop=1;jettySize=auto;html=1;strokeWidth=4;fontFamily=Poppins;fontSize=17;endArrow=block;endFill=1;strokeColor=#000000;fontSource=https%3A%2F%2Ffonts.googleapis.com%2Fcss%3Ffamily%3DPoppins;startArrow=none;startFill=0;exitX=0.969;exitY=0.328;exitDx=0;exitDy=0;exitPerimeter=0;" parent="1" source="fowYS_KOLcoLQ7M-jsU--7" target="xo-ipE_-ma14xCwWNhMG-63" edge="1">
          <mxGeometry relative="1" as="geometry">
            <mxPoint x="671" y="297" as="sourcePoint" />
            <mxPoint x="1066" y="299" as="targetPoint" />
            <Array as="points">
              <mxPoint x="1000" y="297" />
              <mxPoint x="1000" y="297" />
            </Array>
          </mxGeometry>
        </mxCell>
        <mxCell id="0rFcWoOh6gEUKjFKcU0K-4" style="edgeStyle=orthogonalEdgeStyle;rounded=0;orthogonalLoop=1;jettySize=auto;html=1;strokeWidth=4;fontFamily=Poppins;fontSize=17;endArrow=none;endFill=0;strokeColor=#000000;fontSource=https%3A%2F%2Ffonts.googleapis.com%2Fcss%3Ffamily%3DPoppins;startArrow=block;startFill=1;entryX=0.974;entryY=0.338;entryDx=0;entryDy=0;entryPerimeter=0;" parent="1" target="xo-ipE_-ma14xCwWNhMG-14" edge="1">
          <mxGeometry relative="1" as="geometry">
            <mxPoint x="700" y="784" as="targetPoint" />
            <Array as="points">
              <mxPoint x="1080" y="780" />
              <mxPoint x="677" y="780" />
              <mxPoint x="677" y="782" />
            </Array>
            <mxPoint x="1080" y="780" as="sourcePoint" />
          </mxGeometry>
        </mxCell>
        <mxCell id="0rFcWoOh6gEUKjFKcU0K-5" value="Item DB" style="html=1;overflow=block;blockSpacing=1;whiteSpace=wrap;shape=partialRectangle;right=0;left=0;fontSize=16.7;fontColor=#3a414a;spacing=0;strokeColor=#000000;strokeOpacity=100;rounded=1;absoluteArcSize=1;arcSize=9;strokeWidth=3.8;lucidId=zsyzoMuQpBR6;fontFamily=Poppins;fontSource=https%3A%2F%2Ffonts.googleapis.com%2Fcss%3Ffamily%3DPoppins;" parent="1" vertex="1">
          <mxGeometry x="1080" y="753.5" width="148" height="75" as="geometry" />
        </mxCell>
        <mxCell id="0rFcWoOh6gEUKjFKcU0K-6" value="Restaurant" style="html=1;overflow=block;blockSpacing=1;whiteSpace=wrap;fontSize=16.7;fontFamily=Poppins;fontColor=#3a414a;spacing=3.8;strokeOpacity=0;fillOpacity=0;rounded=1;absoluteArcSize=1;arcSize=9;fillColor=#ffffff;strokeWidth=0.8;lucidId=hxyzKl.xqAcC;strokeColor=#000000;fontSource=https%3A%2F%2Ffonts.googleapis.com%2Fcss%3Ffamily%3DPoppins;" parent="1" vertex="1">
          <mxGeometry x="850" y="742" width="108" height="45" as="geometry" />
        </mxCell>
        <mxCell id="0rFcWoOh6gEUKjFKcU0K-7" value="Restaurant details" style="html=1;overflow=block;blockSpacing=1;whiteSpace=wrap;fontSize=16.7;fontFamily=Poppins;fontColor=#3a414a;spacing=3.8;strokeOpacity=0;fillOpacity=0;rounded=1;absoluteArcSize=1;arcSize=9;fillColor=#ffffff;strokeWidth=0.8;lucidId=UMyzu.XHhByF;strokeColor=#000000;fontSource=https%3A%2F%2Ffonts.googleapis.com%2Fcss%3Ffamily%3DPoppins;" parent="1" vertex="1">
          <mxGeometry x="776.5" y="1360" width="180" height="45" as="geometry" />
        </mxCell>
        <mxCell id="0rFcWoOh6gEUKjFKcU0K-12" style="edgeStyle=orthogonalEdgeStyle;shape=connector;rounded=0;orthogonalLoop=1;jettySize=auto;html=1;exitX=0;exitY=0.75;exitDx=0;exitDy=0;entryX=0.323;entryY=1.005;entryDx=0;entryDy=0;entryPerimeter=0;labelBackgroundColor=default;strokeColor=default;strokeWidth=4;fontFamily=Helvetica;fontSize=11;fontColor=default;endArrow=block;endFill=1;sourcePerimeterSpacing=0;" parent="1" edge="1">
          <mxGeometry relative="1" as="geometry">
            <mxPoint x="1093" y="645.25" as="sourcePoint" />
            <mxPoint x="859.145" y="561.5799999999999" as="targetPoint" />
          </mxGeometry>
        </mxCell>
        <mxCell id="0rFcWoOh6gEUKjFKcU0K-10" value="Location DB" style="html=1;overflow=block;blockSpacing=1;whiteSpace=wrap;shape=partialRectangle;right=0;left=0;fontSize=16.7;fontColor=#3a414a;spacing=0;strokeColor=#000000;strokeOpacity=100;rounded=1;absoluteArcSize=1;arcSize=9;strokeWidth=3.8;lucidId=zsyzoMuQpBR6;fontFamily=Poppins;fontSource=https%3A%2F%2Ffonts.googleapis.com%2Fcss%3Ffamily%3DPoppins;" parent="1" vertex="1">
          <mxGeometry x="1080" y="590" width="148" height="75" as="geometry" />
        </mxCell>
        <mxCell id="0rFcWoOh6gEUKjFKcU0K-11" value="Location" style="html=1;overflow=block;blockSpacing=1;whiteSpace=wrap;fontSize=16.7;fontFamily=Poppins;fontColor=#3a414a;spacing=3.8;strokeOpacity=0;fillOpacity=0;rounded=1;absoluteArcSize=1;arcSize=9;fillColor=#ffffff;strokeWidth=0.8;lucidId=_tyzfMEsZIEU;strokeColor=#000000;fontSource=https%3A%2F%2Ffonts.googleapis.com%2Fcss%3Ffamily%3DPoppins;" parent="1" vertex="1">
          <mxGeometry x="876" y="586" width="180" height="45" as="geometry" />
        </mxCell>
        <mxCell id="0rFcWoOh6gEUKjFKcU0K-13" value="Location" style="html=1;overflow=block;blockSpacing=1;whiteSpace=wrap;fontSize=16.7;fontFamily=Poppins;fontColor=#3a414a;spacing=3.8;strokeOpacity=0;fillOpacity=0;rounded=1;absoluteArcSize=1;arcSize=9;fillColor=#ffffff;strokeWidth=0.8;lucidId=_tyzfMEsZIEU;strokeColor=#000000;fontSource=https%3A%2F%2Ffonts.googleapis.com%2Fcss%3Ffamily%3DPoppins;" parent="1" vertex="1">
          <mxGeometry x="874" y="637" width="180" height="45" as="geometry" />
        </mxCell>
        <mxCell id="0rFcWoOh6gEUKjFKcU0K-14" value="Video" style="html=1;overflow=block;blockSpacing=1;whiteSpace=wrap;fontSize=16.7;fontFamily=Poppins;fontColor=#3a414a;spacing=3.8;strokeOpacity=0;fillOpacity=0;rounded=1;absoluteArcSize=1;arcSize=9;fillColor=#ffffff;strokeWidth=0.8;lucidId=_tyzfMEsZIEU;strokeColor=#000000;fontSource=https%3A%2F%2Ffonts.googleapis.com%2Fcss%3Ffamily%3DPoppins;" parent="1" vertex="1">
          <mxGeometry x="299" y="259" width="180" height="45" as="geometry" />
        </mxCell>
        <mxCell id="0rFcWoOh6gEUKjFKcU0K-15" value="Video" style="html=1;overflow=block;blockSpacing=1;whiteSpace=wrap;fontSize=16.7;fontFamily=Poppins;fontColor=#3a414a;spacing=3.8;strokeOpacity=0;fillOpacity=0;rounded=1;absoluteArcSize=1;arcSize=9;fillColor=#ffffff;strokeWidth=0.8;lucidId=_tyzfMEsZIEU;strokeColor=#000000;fontSource=https%3A%2F%2Ffonts.googleapis.com%2Fcss%3Ffamily%3DPoppins;" parent="1" vertex="1">
          <mxGeometry x="800" y="327.5" width="180" height="45" as="geometry" />
        </mxCell>
        <mxCell id="0rFcWoOh6gEUKjFKcU0K-16" value="Video" style="html=1;overflow=block;blockSpacing=1;whiteSpace=wrap;fontSize=16.7;fontFamily=Poppins;fontColor=#3a414a;spacing=3.8;strokeOpacity=0;fillOpacity=0;rounded=1;absoluteArcSize=1;arcSize=9;fillColor=#ffffff;strokeWidth=0.8;lucidId=_tyzfMEsZIEU;strokeColor=#000000;fontSource=https%3A%2F%2Ffonts.googleapis.com%2Fcss%3Ffamily%3DPoppins;" parent="1" vertex="1">
          <mxGeometry x="800" y="258.5" width="180" height="45" as="geometry" />
        </mxCell>
      </root>
    </mxGraphModel>
  </diagram>
</mxfile>
